<?xml version="1.0" encoding="UTF-8"?>
<svg width="128" height="128" viewBox="0 0 128 128" xmlns="http://www.w3.org/2000/svg">
  <defs>
    <linearGradient id="jarvisGradient" x1="0%" y1="0%" x2="100%" y2="100%">
      <stop offset="0%" style="stop-color:#00d4ff;stop-opacity:1" />
      <stop offset="50%" style="stop-color:#0099cc;stop-opacity:1" />
      <stop offset="100%" style="stop-color:#0066aa;stop-opacity:1" />
    </linearGradient>
    <filter id="glow">
      <feGaussianBlur stdDeviation="3" result="coloredBlur"/>
      <feMerge> 
        <feMergeNode in="coloredBlur"/>
        <feMergeNode in="SourceGraphic"/>
      </feMerge>
    </filter>
  </defs>
  
  <!-- Background circle -->
  <circle cx="64" cy="64" r="60" fill="url(#jarvisGradient)" filter="url(#glow)" opacity="0.9"/>
  
  <!-- Inner circle -->
  <circle cx="64" cy="64" r="45" fill="none" stroke="#ffffff" stroke-width="2" opacity="0.7"/>
  
  <!-- Center dot -->
  <circle cx="64" cy="64" r="8" fill="#ffffff" opacity="0.9"/>
  
  <!-- Arc segments (JARVIS-style) -->
  <path d="M 64 19 A 45 45 0 0 1 109 64" fill="none" stroke="#ffffff" stroke-width="3" opacity="0.8"/>
  <path d="M 109 64 A 45 45 0 0 1 64 109" fill="none" stroke="#ffffff" stroke-width="2" opacity="0.6"/>
  <path d="M 64 109 A 45 45 0 0 1 19 64" fill="none" stroke="#ffffff" stroke-width="3" opacity="0.8"/>
  <path d="M 19 64 A 45 45 0 0 1 64 19" fill="none" stroke="#ffffff" stroke-width="2" opacity="0.6"/>
  
  <!-- Corner elements -->
  <circle cx="64" cy="19" r="3" fill="#ffffff" opacity="0.9"/>
  <circle cx="109" cy="64" r="3" fill="#ffffff" opacity="0.7"/>
  <circle cx="64" cy="109" r="3" fill="#ffffff" opacity="0.9"/>
  <circle cx="19" cy="64" r="3" fill="#ffffff" opacity="0.7"/>
  
  <!-- Text -->
  <text x="64" y="75" font-family="Arial, sans-serif" font-size="12" font-weight="bold" 
        text-anchor="middle" fill="#ffffff" opacity="0.9">JARVIS</text>
</svg>